<svg xmlns="http://www.w3.org/2000/svg" xmlns:xlink="http://www.w3.org/1999/xlink" width="500" zoomAndPan="magnify" viewBox="0 0 375 374.999991" height="500" preserveAspectRatio="xMidYMid meet" version="1.0"><defs><clipPath id="8d8b2ea227"><path d="M 135.753906 154 L 246.324219 154 L 246.324219 249.488281 L 135.753906 249.488281 Z M 135.753906 154 " clip-rule="nonzero"/></clipPath><clipPath id="3b95f9223d"><path d="M 128.667969 108.488281 L 242 108.488281 L 242 245 L 128.667969 245 Z M 128.667969 108.488281 " clip-rule="nonzero"/></clipPath></defs><rect x="-37.5" width="450" fill="#ffffff" y="-37.499999" height="449.999989" fill-opacity="1"/><rect x="-37.5" width="450" fill="#ffffff" y="-37.499999" height="449.999989" fill-opacity="1"/><g clip-path="url(#8d8b2ea227)"><path fill="#004aad" d="M 246.328125 154.070312 L 228.085938 154.070312 L 228.085938 249.621094 L 246.328125 249.621094 Z M 215.605469 174.878906 L 197.363281 174.878906 L 197.363281 249.621094 L 215.605469 249.621094 Z M 184.886719 190.097656 L 166.648438 190.097656 L 166.648438 249.621094 L 184.886719 249.621094 Z M 154.167969 249.621094 L 135.925781 249.621094 L 135.925781 201.621094 L 154.167969 201.621094 L 154.167969 249.621094 " fill-opacity="1" fill-rule="nonzero"/></g><g clip-path="url(#3b95f9223d)"><path fill="#0f0e0c" d="M 232.859375 112.398438 C 225.175781 124.027344 211.824219 139.644531 190.648438 151.136719 C 169.386719 162.683594 148.886719 165.421875 134.175781 165.421875 C 132.59375 165.421875 131.097656 165.394531 129.660156 165.335938 C 129.09375 165.308594 128.671875 164.859375 128.699219 164.292969 C 128.726562 163.726562 129.207031 163.332031 129.742188 163.332031 C 144.3125 163.898438 166.5625 161.949219 189.714844 149.382812 C 211.03125 137.808594 224.273438 121.96875 231.753906 110.476562 L 214.671875 110.476562 C 214.109375 110.476562 213.683594 110.023438 213.683594 109.488281 C 213.683594 108.953125 214.140625 108.5 214.671875 108.5 L 233.871094 108.5 C 234.4375 108.5 234.859375 108.953125 234.859375 109.488281 L 234.859375 129 C 234.859375 129.5625 234.410156 129.988281 233.871094 129.988281 C 233.339844 129.988281 232.882812 129.535156 232.882812 129 L 232.882812 112.398438 Z M 239.097656 242.222656 L 222.863281 242.222656 L 222.863281 148.679688 L 239.097656 148.679688 Z M 240.085938 146.675781 L 221.847656 146.675781 C 221.28125 146.675781 220.859375 147.125 220.859375 147.664062 L 220.859375 243.210938 C 220.859375 243.773438 221.308594 244.199219 221.847656 244.199219 L 240.085938 244.199219 C 240.648438 244.199219 241.074219 243.746094 241.074219 243.210938 L 241.074219 147.691406 C 241.105469 147.125 240.648438 146.675781 240.085938 146.675781 Z M 208.375 242.222656 L 192.140625 242.222656 L 192.140625 169.488281 L 208.375 169.488281 Z M 209.363281 167.484375 L 191.128906 167.484375 C 190.5625 167.484375 190.140625 167.933594 190.140625 168.472656 L 190.140625 243.210938 C 190.140625 243.773438 190.589844 244.199219 191.128906 244.199219 L 209.363281 244.199219 C 209.929688 244.199219 210.351562 243.746094 210.351562 243.210938 L 210.351562 168.472656 C 210.382812 167.933594 209.929688 167.484375 209.363281 167.484375 Z M 177.660156 242.222656 L 161.425781 242.222656 L 161.425781 184.707031 L 177.660156 184.707031 Z M 178.648438 182.703125 L 160.40625 182.703125 C 159.839844 182.703125 159.417969 183.152344 159.417969 183.691406 L 159.417969 243.210938 C 159.417969 243.773438 159.871094 244.199219 160.40625 244.199219 L 178.648438 244.199219 C 179.210938 244.199219 179.636719 243.746094 179.636719 243.210938 L 179.636719 183.691406 C 179.660156 183.152344 179.210938 182.703125 178.648438 182.703125 Z M 146.941406 242.222656 L 130.703125 242.222656 L 130.703125 196.226562 L 146.941406 196.226562 Z M 147.929688 194.222656 L 129.6875 194.222656 C 129.121094 194.222656 128.699219 194.675781 128.699219 195.210938 L 128.699219 243.210938 C 128.699219 243.773438 129.152344 244.199219 129.6875 244.199219 L 147.929688 244.199219 C 148.492188 244.199219 148.917969 243.746094 148.917969 243.210938 L 148.917969 195.210938 C 148.945312 194.675781 148.492188 194.222656 147.929688 194.222656 " fill-opacity="1" fill-rule="nonzero"/></g></svg>